<?xml version="1.0" encoding="UTF-8"?>
<svg id="Layer_1" xmlns="http://www.w3.org/2000/svg" version="1.1" viewBox="0 0 2233 999">
  <!-- Generator: Adobe Illustrator 29.4.0, SVG Export Plug-In . SVG Version: 2.1.0 Build 152)  -->
  <defs>
    <style>
      .st0 {
        fill: #ffc72c;
      }

      .st1 {
        fill: #040609;
      }

      .st2 {
        fill: #007fba;
      }
    </style>
  </defs>
  <g id="Layer_1-2">
    <g>
      <path class="st2" d="M499.6,976.5c-64.4,0-126.9-12.6-185.7-37.5-56.8-24-107.8-58.4-151.6-102.2-43.8-43.8-78.2-94.8-102.2-151.6-24.9-58.8-37.5-121.3-37.5-185.7s12.6-126.9,37.5-185.7c24-56.8,58.4-107.8,102.2-151.6,43.8-43.8,94.8-78.2,151.6-102.2,58.8-24.9,121.3-37.5,185.7-37.5s126.9,12.6,185.7,37.5c56.8,24,107.8,58.4,151.6,102.2,43.8,43.8,78.2,94.8,102.2,151.6,24.9,58.8,37.5,121.3,37.5,185.7s-12.6,126.9-37.5,185.7c-24,56.8-58.4,107.8-102.2,151.6-43.8,43.8-94.8,78.2-151.6,102.2-58.8,24.9-121.3,37.5-185.7,37.5h0ZM499.6,76.9c-57.1,0-112.4,11.2-164.5,33.2-50.3,21.3-95.5,51.8-134.3,90.6-38.8,38.8-69.3,84-90.6,134.3-22,52.1-33.2,107.4-33.2,164.5s11.2,112.4,33.2,164.5c21.3,50.3,51.8,95.5,90.6,134.3,38.8,38.8,84,69.3,134.3,90.6,52.1,22,107.4,33.2,164.5,33.2s112.4-11.2,164.5-33.2c50.3-21.3,95.5-51.8,134.3-90.6s69.3-84,90.6-134.3c22-52.1,33.2-107.4,33.2-164.5s-11.2-112.4-33.2-164.5c-21.3-50.3-51.8-95.5-90.6-134.3s-84-69.3-134.3-90.6c-52.1-22-107.4-33.2-164.5-33.2Z"/>
      <polygon class="st0" points="790.3 406.5 775.3 444.5 819.4 444.5 834.3 406.5 790.3 406.5"/>
      <path class="st1" d="M356.2,439.3c-23.9-26-53.4-39.1-87.6-39.1s-67.9,13.1-93.3,38.9c-25.4,25.8-38.2,57.4-38.2,93.7s12.7,67.9,37.8,93.9c25.1,26,55.9,39.2,91.5,39.2s63.8-13.4,89.9-40v31.8h42.1v-350.9h-42.1v132.4h0ZM332.8,468.2c16.7,17.6,25.2,39.8,25.2,66.2s-9.1,48.3-27.1,65.4c-18,17.1-38.8,25.8-61.6,25.8s-45.5-9.3-62.9-27.5c-17.4-18.3-26.3-40-26.3-64.6s8.6-46.2,25.6-64.4c17-18.1,38.4-27.3,63.8-27.3s46.7,8.9,63.4,26.4"/>
      <path class="st1" d="M823.9,625.4c-8.6,2.4-17.7,3.6-26.4,3.6-20.9,0-32.3-6.9-32.3-43.5v-278.6h-42.5v99.6h-28.2l-15,38h43.2v139.6c0,38.1,7.7,81.8,67.3,81.8s25.7-1.6,35.5-4.8l1.9-.6v-36.1l-3.5,1h0Z"/>
      <path class="st1" d="M561.3,560.5c-2.5,6.1-6,15.7-10.4,28.3-2.1,6-4.1,11.7-5.6,16-3.9-11.2-11.2-31.9-16.5-44.3l-60.9-154h-44.7l98.2,249.5.7,1.8h44.8l98.9-251.3h-44.1l-60.4,154h0Z"/>
    </g>
  </g>
  <g>
    <path class="st1" d="M1124.5,451.8h-12.2c-.6-2.9-2-5.2-4.2-7-2.2-1.8-4.7-2.8-7.6-2.8s-6.4.9-8.5,2.8c-2.1,1.9-3.1,4.2-3.1,7s1,4.8,3.1,6.8c2.1,2,6.2,3.9,12.3,5.9,14.2,4.6,21.2,12.4,21.2,23.4s-2.2,12.1-6.7,16.1c-4.5,4-10.5,6-18,6s-13.8-2-18.2-6c-4.4-4-7.2-9.4-8.4-16.1h12.2c1.7,7.8,6.7,11.8,14.8,11.8s6.9-1,9-3.1c2.1-2,3.2-4.6,3.2-7.8s-1.1-6.1-3.4-8.3c-2.2-2.2-6.6-4.4-13-6.5-6.9-2.2-12-5.1-15.3-8.7-3.3-3.6-4.9-8.1-4.9-13.6s2-10.3,6-14.1c4-3.8,9.7-5.7,16.9-5.7,13.3,0,21.5,6.7,24.6,20Z"/>
    <path class="st1" d="M1152,507.4v-73.2h12.1v9.2h.3c5.8-7.7,13.1-11.6,21.9-11.6s10.6,1.4,15,4.3c4.4,2.9,7.3,6.5,8.9,10.8,2-4.2,5.3-7.7,9.7-10.7,4.4-3,9.6-4.4,15.5-4.4,8.5,0,15.2,2.9,20.3,8.6,5.1,5.8,7.6,13.9,7.6,24.4v42.6h-12.1v-43.6c0-6.1-1.5-11.2-4.4-15.2-3-4-7.3-6-13.1-6s-10.3,2-14.1,6.1c-3.8,4.1-5.7,10.1-5.7,18v40.6h-12.2v-43.6c0-6.2-1.6-11.3-4.7-15.3-3.2-4-7.4-6-12.7-6s-11.1,2.1-14.7,6.4c-3.6,4.3-5.3,10.2-5.3,17.7v40.6h-12.1Z"/>
    <path class="st1" d="M1364.2,434.2v73.2h-12.1v-9.8h-.3c-6.8,8.3-15.7,12.4-26.7,12.4s-19.1-3.6-26.5-10.9c-7.4-7.3-11.1-16.7-11.1-28.3s3.6-20.6,10.9-28c7.3-7.3,16.4-11,27.4-11s18.8,4.3,26.1,13h.2v-10.5h12.1ZM1307.1,450.8c-4.7,5.7-7,12.3-7,19.9s2.3,14.3,7,20c4.7,5.7,11.3,8.6,19.7,8.6s13.3-2.7,18.6-8c5.2-5.3,7.9-12,7.9-20.1s-2.5-15.5-7.6-20.9c-5-5.3-11.2-8-18.6-8s-15.3,2.8-20,8.5Z"/>
    <path class="st1" d="M1432.4,432.2v11.2c-3.1-.5-5.4-.8-7-.8-5.6,0-10.1,2.1-13.6,6.4-3.5,4.3-5.2,10.8-5.2,19.6v38.8h-12.1v-73.2h12.1v9.2h.3c1.4-2.9,3.9-5.5,7.5-7.9,3.6-2.4,7.5-3.7,11.9-3.7s4.4.2,6.1.5Z"/>
    <path class="st1" d="M1450.3,444.3v-10.1h9.6v-23.4h12.1v23.4h19.6v10.1h-19.6v38.7c0,5.7.9,9.7,2.7,11.8,1.8,2.2,4.7,3.3,8.8,3.3s5.9-.4,8.9-1.2v9.9c-3.1,1-6.8,1.5-11.3,1.5-8.2,0-13.7-2.3-16.7-6.9-3-4.6-4.4-10.9-4.4-18.9v-38.2h-9.6Z"/>
    <path class="st1" d="M1563.7,543.3v-109.1h12.1v10.4h.3c7.2-8.6,16.4-12.8,27.5-12.8s20.1,3.9,26.8,11.6c6.7,7.7,10,16.9,10,27.4s-3.5,20.4-10.6,28c-7.1,7.5-16,11.3-26.7,11.3s-20.1-4.1-27-12.4h-.3v45.7h-12.1ZM1627.8,470.7c0-7.7-2.4-14.4-7.1-20-4.7-5.6-11.3-8.4-19.8-8.4s-13.7,2.7-18.7,8c-5,5.3-7.6,12.3-7.6,20.9s2.6,14.9,7.9,20.2c5.2,5.3,11.5,7.9,18.7,7.9s14.9-2.9,19.6-8.6c4.7-5.7,7-12.4,7-20Z"/>
    <path class="st1" d="M1696.9,431.8c6.3,0,11.9,1.2,16.8,3.7,4.9,2.4,8.7,5.6,11.4,9.5,2.7,3.9,4.7,7.9,6,12.1,1.3,4.2,2,8.5,2,12.8s-.1,3.4-.3,4.4h-59.8c0,6.6,2.6,12.5,7.8,17.5,5.2,5,11.3,7.6,18.2,7.6s13.8-3,18.8-8.9h13.9c-2.9,5.4-7,10-12.5,13.8-5.5,3.8-12.1,5.7-19.9,5.7-11.5,0-20.9-3.8-28-11.5-7.2-7.6-10.8-17.2-10.8-28.7s3.4-19.5,10.1-26.9c6.7-7.4,15.5-11.2,26.3-11.2ZM1696.9,442.3c-6.6,0-12.1,2.2-16.4,6.5-4.3,4.3-6.7,9.5-7.3,15.4h47.2c-.6-6-3.1-11.2-7.4-15.4-4.3-4.3-9.7-6.4-16.1-6.4Z"/>
    <path class="st1" d="M1753.3,470.7c0-11.2,3.7-20.5,11.2-27.9,7.5-7.4,16.8-11.1,27.9-11.1s20.7,3.7,28,11.2c7.4,7.4,11.1,16.7,11.1,27.8s-3.7,20.2-11.2,27.8c-7.4,7.6-16.8,11.5-28,11.5s-20.4-3.8-27.9-11.3c-7.5-7.5-11.2-16.9-11.2-28ZM1765.8,470.7c0,8,2.6,14.8,7.9,20.2,5.2,5.4,11.5,8.1,18.7,8.1s14-2.7,19-8.1c5-5.4,7.6-12.1,7.6-20.2s-2.5-14.6-7.4-20c-4.9-5.4-11.3-8.1-19.2-8.1s-14.1,2.7-19.1,7.9c-5,5.3-7.5,12-7.5,20.2Z"/>
    <path class="st1" d="M1856.8,543.3v-109.1h12.1v10.4h.3c7.2-8.6,16.4-12.8,27.5-12.8s20.1,3.9,26.8,11.6c6.7,7.7,10,16.9,10,27.4s-3.5,20.4-10.6,28c-7.1,7.5-16,11.3-26.7,11.3s-20.1-4.1-27-12.4h-.3v45.7h-12.1ZM1920.9,470.7c0-7.7-2.4-14.4-7.1-20-4.7-5.6-11.3-8.4-19.8-8.4s-13.7,2.7-18.7,8-7.6,12.3-7.6,20.9,2.6,14.9,7.9,20.2c5.2,5.3,11.5,7.9,18.7,7.9s14.9-2.9,19.6-8.6c4.7-5.7,7-12.4,7-20Z"/>
    <path class="st1" d="M1958.7,507.4v-110h12.1v110h-12.1Z"/>
    <path class="st1" d="M2032.3,431.8c6.3,0,11.9,1.2,16.8,3.7,4.9,2.4,8.7,5.6,11.4,9.5,2.7,3.9,4.7,7.9,6,12.1,1.3,4.2,2,8.5,2,12.8s-.1,3.4-.3,4.4h-59.8c0,6.6,2.6,12.5,7.8,17.5s11.3,7.6,18.2,7.6,13.8-3,18.8-8.9h13.9c-2.9,5.4-7,10-12.5,13.8-5.5,3.8-12.1,5.7-19.9,5.7-11.5,0-20.9-3.8-28-11.5-7.2-7.6-10.8-17.2-10.8-28.7s3.4-19.5,10.1-26.9c6.7-7.4,15.5-11.2,26.3-11.2ZM2032.3,442.3c-6.6,0-12.1,2.2-16.4,6.5-4.3,4.3-6.7,9.5-7.3,15.4h47.2c-.6-6-3.1-11.2-7.4-15.4-4.3-4.3-9.7-6.4-16.1-6.4Z"/>
    <path class="st1" d="M1124.5,613.4h-12.2c-.6-2.9-2-5.2-4.2-7-2.2-1.8-4.7-2.8-7.6-2.8s-6.4.9-8.5,2.8c-2.1,1.9-3.1,4.2-3.1,7s1,4.8,3.1,6.8c2.1,2,6.2,3.9,12.3,5.9,14.2,4.6,21.2,12.4,21.2,23.4s-2.2,12.1-6.7,16.1c-4.5,4-10.5,6-18,6s-13.8-2-18.2-6c-4.4-4-7.2-9.4-8.4-16.1h12.2c1.7,7.8,6.7,11.8,14.8,11.8s6.9-1,9-3.1c2.1-2,3.2-4.6,3.2-7.8s-1.1-6.1-3.4-8.3c-2.2-2.2-6.6-4.4-13-6.5-6.9-2.2-12-5.1-15.3-8.7-3.3-3.6-4.9-8.1-4.9-13.6s2-10.3,6-14.1c4-3.8,9.7-5.7,16.9-5.7,13.3,0,21.5,6.7,24.6,20Z"/>
    <path class="st1" d="M1152,669.1v-73.2h12.1v9.2h.3c5.8-7.7,13.1-11.6,21.9-11.6s10.6,1.4,15,4.3c4.4,2.9,7.3,6.5,8.9,10.8,2-4.2,5.3-7.7,9.7-10.7,4.4-3,9.6-4.4,15.5-4.4,8.5,0,15.2,2.9,20.3,8.6,5.1,5.8,7.6,13.9,7.6,24.4v42.6h-12.1v-43.6c0-6.1-1.5-11.2-4.4-15.2-3-4-7.3-6-13.1-6s-10.3,2-14.1,6.1c-3.8,4.1-5.7,10.1-5.7,18v40.6h-12.2v-43.6c0-6.2-1.6-11.3-4.7-15.3-3.2-4-7.4-6-12.7-6s-11.1,2.1-14.7,6.4c-3.6,4.3-5.3,10.2-5.3,17.7v40.6h-12.1Z"/>
    <path class="st1" d="M1364.2,595.9v73.2h-12.1v-9.8h-.3c-6.8,8.3-15.7,12.4-26.7,12.4s-19.1-3.6-26.5-10.9c-7.4-7.3-11.1-16.7-11.1-28.3s3.6-20.6,10.9-28c7.3-7.3,16.4-11,27.4-11s18.8,4.3,26.1,13h.2v-10.5h12.1ZM1307.1,612.4c-4.7,5.7-7,12.3-7,19.9s2.3,14.3,7,20c4.7,5.7,11.3,8.6,19.7,8.6s13.3-2.7,18.6-8c5.2-5.3,7.9-12,7.9-20.1s-2.5-15.5-7.6-20.9c-5-5.3-11.2-8-18.6-8s-15.3,2.8-20,8.5Z"/>
    <path class="st1" d="M1432.4,593.9v11.2c-3.1-.5-5.4-.8-7-.8-5.6,0-10.1,2.1-13.6,6.4-3.5,4.3-5.2,10.8-5.2,19.6v38.8h-12.1v-73.2h12.1v9.2h.3c1.4-2.9,3.9-5.5,7.5-7.9,3.6-2.4,7.5-3.7,11.9-3.7s4.4.2,6.1.5Z"/>
    <path class="st1" d="M1450.3,605.9v-10.1h9.6v-23.4h12.1v23.4h19.6v10.1h-19.6v38.7c0,5.7.9,9.7,2.7,11.8,1.8,2.2,4.7,3.3,8.8,3.3s5.9-.4,8.9-1.2v9.9c-3.1,1-6.8,1.5-11.3,1.5-8.2,0-13.7-2.3-16.7-6.9-3-4.6-4.4-10.9-4.4-18.9v-38.2h-9.6Z"/>
    <path class="st1" d="M1610.3,613.4h-12.2c-.6-2.9-2-5.2-4.2-7-2.2-1.8-4.7-2.8-7.6-2.8s-6.4.9-8.5,2.8c-2.1,1.9-3.1,4.2-3.1,7s1,4.8,3.1,6.8c2.1,2,6.2,3.9,12.3,5.9,14.2,4.6,21.2,12.4,21.2,23.4s-2.2,12.1-6.7,16.1c-4.5,4-10.5,6-18,6s-13.8-2-18.2-6c-4.4-4-7.2-9.4-8.4-16.1h12.2c1.7,7.8,6.7,11.8,14.8,11.8s6.9-1,9-3.1c2.1-2,3.2-4.6,3.2-7.8s-1.1-6.1-3.4-8.3c-2.2-2.2-6.6-4.4-13-6.5-6.9-2.2-12-5.1-15.3-8.7-3.3-3.6-4.9-8.1-4.9-13.6s2-10.3,6-14.1c4-3.8,9.7-5.7,16.9-5.7,13.3,0,21.5,6.7,24.6,20Z"/>
    <path class="st1" d="M1632.7,632.4c0-11.2,3.7-20.5,11.2-27.9,7.5-7.4,16.8-11.1,27.9-11.1s20.7,3.7,28,11.2c7.4,7.4,11.1,16.7,11.1,27.8s-3.7,20.2-11.2,27.8c-7.4,7.6-16.8,11.5-28,11.5s-20.4-3.8-27.9-11.3c-7.5-7.5-11.2-16.9-11.2-28ZM1645.3,632.4c0,8,2.6,14.8,7.9,20.2,5.2,5.4,11.5,8.1,18.7,8.1s14-2.7,19-8.1c5-5.4,7.6-12.1,7.6-20.2s-2.5-14.6-7.4-20c-4.9-5.4-11.3-8.1-19.2-8.1s-14.1,2.7-19.1,7.9c-5,5.3-7.5,12-7.5,20.2Z"/>
    <path class="st1" d="M1736.2,669.1v-110h12.1v110h-12.1Z"/>
    <path class="st1" d="M1839.9,595.9v73.2h-12.1v-9h-.3c-5.7,7.7-13.1,11.6-22.2,11.6s-13.9-2.7-19.5-8c-5.6-5.3-8.3-13.7-8.3-25v-42.8h12.1v41.9c0,7.3,1.6,13,4.8,17,3.2,4,7.5,6,12.9,6s11.4-2.2,15.1-6.6c3.6-4.4,5.4-10.7,5.4-19.1v-39.1h12.1Z"/>
    <path class="st1" d="M1862.3,605.9v-10.1h9.6v-23.4h12.1v23.4h19.6v10.1h-19.6v38.7c0,5.7.9,9.7,2.7,11.8,1.8,2.2,4.7,3.3,8.8,3.3s5.9-.4,8.9-1.2v9.9c-3.1,1-6.8,1.5-11.3,1.5-8.2,0-13.7-2.3-16.7-6.9-3-4.6-4.4-10.9-4.4-18.9v-38.2h-9.6Z"/>
    <path class="st1" d="M1928.3,669.1v-73.2h12.1v73.2h-12.1Z"/>
    <path class="st1" d="M1965.6,632.4c0-11.2,3.7-20.5,11.2-27.9,7.5-7.4,16.8-11.1,27.9-11.1s20.7,3.7,28,11.2c7.4,7.4,11.1,16.7,11.1,27.8s-3.7,20.2-11.2,27.8c-7.4,7.6-16.8,11.5-28,11.5s-20.4-3.8-27.9-11.3c-7.5-7.5-11.2-16.9-11.2-28ZM1978.1,632.4c0,8,2.6,14.8,7.9,20.2,5.2,5.4,11.5,8.1,18.7,8.1s14-2.7,19-8.1c5-5.4,7.6-12.1,7.6-20.2s-2.5-14.6-7.4-20c-4.9-5.4-11.3-8.1-19.2-8.1s-14.1,2.7-19.1,7.9c-5,5.3-7.5,12-7.5,20.2Z"/>
    <path class="st1" d="M2069,669.1v-73.2h12.1v9.2h.3c6-7.7,13.7-11.6,23.1-11.6s14.5,2.7,20.2,8c5.8,5.3,8.6,13.7,8.6,25v42.6h-12.1v-41.9c0-7.3-1.7-13-5-17-3.3-4-7.9-6-13.7-6s-12,2.2-15.8,6.6c-3.8,4.4-5.7,10.8-5.7,19.2v39h-12.1Z"/>
    <path class="st1" d="M2209.3,613.4h-12.2c-.6-2.9-2-5.2-4.2-7-2.2-1.8-4.7-2.8-7.6-2.8s-6.4.9-8.5,2.8c-2.1,1.9-3.1,4.2-3.1,7s1,4.8,3.1,6.8c2.1,2,6.2,3.9,12.3,5.9,14.2,4.6,21.2,12.4,21.2,23.4s-2.2,12.1-6.7,16.1c-4.5,4-10.5,6-18,6s-13.8-2-18.2-6c-4.4-4-7.2-9.4-8.4-16.1h12.2c1.7,7.8,6.7,11.8,14.8,11.8s6.9-1,9-3.1c2.1-2,3.2-4.6,3.2-7.8s-1.1-6.1-3.4-8.3c-2.2-2.2-6.6-4.4-13-6.5-6.9-2.2-12-5.1-15.3-8.7-3.3-3.6-4.9-8.1-4.9-13.6s2-10.3,6-14.1c4-3.8,9.7-5.7,16.9-5.7,13.3,0,21.5,6.7,24.6,20Z"/>
    <circle class="st1" cx="1934.3" cy="571.2" r="7.5"/>
  </g>
</svg>